<svg xmlns="http://www.w3.org/2000/svg" viewBox="0 0 1200 630" role="img" aria-labelledby="title desc">
  <title id="title">Automation Notes Article Image</title>
  <desc id="desc">Abstract automation dashboard with pipeline flow and monitoring cards.</desc>
  <defs>
    <linearGradient id="bg" x1="0%" x2="100%" y1="0%" y2="100%">
      <stop offset="0%" stop-color="#f7fdfb"/>
      <stop offset="100%" stop-color="#edf9f5"/>
    </linearGradient>
  </defs>
  <rect width="1200" height="630" fill="url(#bg)"/>
  <rect x="94" y="88" width="1012" height="454" rx="36" fill="#ffffff"/>
  <rect x="146" y="138" width="908" height="78" rx="24" fill="#f1f3f5"/>
  <rect x="176" y="167" width="156" height="18" rx="9" fill="#12b886"/>
  <rect x="146" y="258" width="270" height="230" rx="28" fill="#212529"/>
  <rect x="464" y="258" width="260" height="96" rx="24" fill="#20c997"/>
  <rect x="464" y="392" width="260" height="96" rx="24" fill="#e9ecef"/>
  <rect x="774" y="258" width="280" height="230" rx="28" fill="#f8f9fa" stroke="#dee2e6" stroke-width="4"/>
  <path d="M510 306h110" stroke="#ffffff" stroke-width="18" stroke-linecap="round"/>
  <path d="M527 440h134" stroke="#495057" stroke-width="18" stroke-linecap="round"/>
  <circle cx="210" cy="302" r="26" fill="#20c997"/>
  <circle cx="210" cy="372" r="26" fill="#63e6be"/>
  <circle cx="210" cy="442" r="26" fill="#96f2d7"/>
  <path d="M262 302h96" stroke="#868e96" stroke-width="16" stroke-linecap="round"/>
  <path d="M262 372h112" stroke="#868e96" stroke-width="16" stroke-linecap="round" opacity="0.85"/>
  <path d="M262 442h84" stroke="#868e96" stroke-width="16" stroke-linecap="round" opacity="0.7"/>
  <path d="M742 305h42" stroke="#20c997" stroke-width="12" stroke-linecap="round"/>
  <path d="M742 440h42" stroke="#20c997" stroke-width="12" stroke-linecap="round"/>
  <path d="M772 305l22 22-22 22" fill="none" stroke="#20c997" stroke-linecap="round" stroke-linejoin="round" stroke-width="12"/>
  <path d="M772 440l22-22-22-22" fill="none" stroke="#20c997" stroke-linecap="round" stroke-linejoin="round" stroke-width="12"/>
  <rect x="816" y="298" width="192" height="18" rx="9" fill="#495057"/>
  <rect x="816" y="338" width="148" height="16" rx="8" fill="#868e96"/>
  <rect x="816" y="398" width="168" height="18" rx="9" fill="#12b886"/>
  <rect x="816" y="438" width="124" height="16" rx="8" fill="#adb5bd"/>
</svg>
