<svg xmlns="http://www.w3.org/2000/svg" viewBox="0 0 1280 720" role="img" aria-labelledby="title desc">
  <title>GitHub sync thumbnail</title>
  <desc>Original SVG illustration for GitHub sync guide.</desc>
  <rect width="1280" height="720" rx="40" fill="#f8f9fa"/>
  <rect x="108" y="112" width="306" height="496" rx="34" fill="#ffffff" stroke="#dee2e6" stroke-width="6"/>
  <circle cx="261" cy="248" r="72" fill="#e9ecef"/>
  <circle cx="261" cy="230" r="28" fill="#adb5bd"/>
  <path d="M186 334c11-42 36-62 75-62s64 20 75 62" fill="#adb5bd"/>
  <rect x="170" y="406" width="182" height="26" rx="13" fill="#ced4da"/>
  <rect x="170" y="454" width="144" height="20" rx="10" fill="#dee2e6"/>
  <rect x="484" y="132" width="688" height="200" rx="32" fill="#0f172a"/>
  <rect x="484" y="378" width="688" height="200" rx="32" fill="#ffffff" stroke="#dee2e6" stroke-width="6"/>
  <rect x="546" y="188" width="238" height="24" rx="12" fill="#51cf66"/>
  <rect x="546" y="244" width="388" height="18" rx="9" fill="#364152"/>
  <rect x="546" y="432" width="280" height="28" rx="14" fill="#228be6" opacity="0.2"/>
  <rect x="546" y="490" width="482" height="22" rx="11" fill="#ced4da"/>
  <text x="546" y="544" fill="#1c1f23" font-family="Arial, Helvetica, sans-serif" font-size="44" font-weight="700">GitHub Profile Sync</text>
</svg>
