<svg xmlns="http://www.w3.org/2000/svg" viewBox="0 0 1200 630" role="img" aria-labelledby="title desc">
  <title id="title">Shipping Fast Article Image</title>
  <desc id="desc">Abstract shapes suggesting fast deployment and delivery.</desc>
  <defs>
    <linearGradient id="bg" x1="0%" x2="100%" y1="0%" y2="100%">
      <stop offset="0%" stop-color="#f3fffb"/>
      <stop offset="100%" stop-color="#dff7ef"/>
    </linearGradient>
    <linearGradient id="panel" x1="0%" x2="100%" y1="0%" y2="100%">
      <stop offset="0%" stop-color="#12b886"/>
      <stop offset="100%" stop-color="#20c997"/>
    </linearGradient>
  </defs>
  <rect width="1200" height="630" fill="url(#bg)"/>
  <circle cx="1060" cy="120" r="120" fill="#c3fae8" opacity="0.85"/>
  <circle cx="170" cy="520" r="160" fill="#e9ecef" opacity="0.9"/>
  <rect x="90" y="88" width="1020" height="454" rx="36" fill="#ffffff"/>
  <rect x="140" y="148" width="450" height="260" rx="28" fill="#212529"/>
  <rect x="192" y="208" width="220" height="24" rx="12" fill="#20c997"/>
  <rect x="192" y="258" width="300" height="18" rx="9" fill="#495057"/>
  <rect x="192" y="290" width="248" height="18" rx="9" fill="#495057" opacity="0.8"/>
  <rect x="192" y="322" width="180" height="18" rx="9" fill="#495057" opacity="0.55"/>
  <path d="M640 222h210" stroke="#adb5bd" stroke-width="18" stroke-linecap="round"/>
  <path d="M640 282h300" stroke="#adb5bd" stroke-width="18" stroke-linecap="round" opacity="0.9"/>
  <path d="M640 342h238" stroke="#adb5bd" stroke-width="18" stroke-linecap="round" opacity="0.7"/>
  <rect x="638" y="404" width="208" height="58" rx="29" fill="url(#panel)"/>
  <path d="M852 433h118" stroke="#20c997" stroke-width="16" stroke-linecap="round"/>
  <path d="M946 401l48 40-48 40" fill="none" stroke="#12b886" stroke-linecap="round" stroke-linejoin="round" stroke-width="18"/>
</svg>
